erDiagram

    MUNDIAL {
        int id PK
        int anio
        string sede
    }

    PAIS {
        int id PK
        string nombre
    }

    GRUPO {
        int id PK
        string nombre
    }

    PARTICIPACION_MUNDIAL {
        int id PK
        int mundial_id FK
        int pais_id FK
        int grupo_id FK

        int posicion_grupo
        int posicion_final
    }

    CLUB {
        int id PK
        string nombre
        int pais_id FK
    }

    POSICION {
        int id PK
        string nombre
    }

    JUGADOR {
        int id PK
        string numero_pasaporte
        string nombre
        string apellido
        date fecha_nacimiento

        int pais_id FK
        int club_id FK
        int posicion_id FK
    }

    PARTICIPACION_JUGADOR_MUNDIAL {
        int id PK
        int jugador_id FK
        int participacion_mundial_id FK

        int numero_camiseta
        int partidos_jugados
        int goles
        int asistencias
        int tarjetas_amarillas
        int tarjetas_rojas
    }

    ROL_TECNICO {
        int id PK
        string nombre
    }

    CUERPO_TECNICO {
        int id PK
        string numero_pasaporte
        string nombre
        string apellido

        int pais_id FK
        int rol_tecnico_id FK
    }

    INSTANCIA {
        int id PK
        string nombre
    }

    PARTIDO {
        int id PK
        datetime fecha_hora

        int mundial_id FK
        int instancia_id FK
    }

    PARTICIPA_PARTIDO {
        int id PK

        int partido_id FK
        int pais_id FK

        string condicion
        int goles

        int minutos_ataque
        int cantidad_laterales
        int cantidad_corners
    }

    TIPO_EVENTO {
        int id PK
        string nombre
    }

    EVENTO_JUGADOR {
        int id PK

        int partido_id FK
        int jugador_id FK
        int tipo_evento_id FK

        int minuto
    }

    CAMBIO {
        int id PK

        int partido_id FK
        int jugador_sale_id FK
        int jugador_entra_id FK

        int minuto
    }

    MUNDIAL ||--o{ PARTICIPACION_MUNDIAL : incluye
    PAIS ||--o{ PARTICIPACION_MUNDIAL : participa
    GRUPO ||--o{ PARTICIPACION_MUNDIAL : integra

    PAIS ||--o{ CLUB : posee

    CLUB ||--o{ JUGADOR : pertenece
    POSICION ||--o{ JUGADOR : ocupa
    PAIS ||--o{ JUGADOR : representa

    PARTICIPACION_MUNDIAL ||--o{ PARTICIPACION_JUGADOR_MUNDIAL : registra
    JUGADOR ||--o{ PARTICIPACION_JUGADOR_MUNDIAL : participa

    PAIS ||--o{ CUERPO_TECNICO : integra
    ROL_TECNICO ||--o{ CUERPO_TECNICO : cumple

    MUNDIAL ||--o{ PARTIDO : contiene
    INSTANCIA ||--o{ PARTIDO : corresponde

    PARTIDO ||--o{ PARTICIPA_PARTIDO : tiene
    PAIS ||--o{ PARTICIPA_PARTIDO : participa

    PARTIDO ||--o{ EVENTO_JUGADOR : ocurre
    JUGADOR ||--o{ EVENTO_JUGADOR : realiza
    TIPO_EVENTO ||--o{ EVENTO_JUGADOR : clasifica

    PARTIDO ||--o{ CAMBIO : registra
    JUGADOR ||--o{ CAMBIO : sale
    JUGADOR ||--o{ CAMBIO : entra